HIERARCHY
ROOT Hips
{
	OFFSET -0.001795 -0.223333 0.028219
	CHANNELS 6 Xposition Yposition Zposition Zrotation Yrotation Xrotation 
	JOINT LeftUpLeg
	{
		OFFSET 0.069520 -0.091406 -0.006815
		CHANNELS 3 Zrotation Yrotation Xrotation
		JOINT LeftLeg
		{
			OFFSET 0.034277 -0.375199 -0.004496
			CHANNELS 3 Zrotation Yrotation Xrotation
			JOINT LeftFoot
			{
				OFFSET -0.013596 -0.397961 -0.043693
				CHANNELS 3 Zrotation Yrotation Xrotation
				JOINT LeftToe
				{
					OFFSET 0.026358 -0.055791 0.119288
					CHANNELS 3 Zrotation Yrotation Xrotation
					End Site
					{
						OFFSET 0.000000 0.000000 0.000000
					}
				}
			}
		}
	}
	JOINT RightUpLeg
	{
		OFFSET -0.067670 -0.090522 -0.004320
		CHANNELS 3 Zrotation Yrotation Xrotation
		JOINT RightLeg
		{
			OFFSET -0.038290 -0.382569 -0.008850
			CHANNELS 3 Zrotation Yrotation Xrotation
			JOINT RightFoot
			{
				OFFSET 0.015774 -0.398415 -0.042312
				CHANNELS 3 Zrotation Yrotation Xrotation
				JOINT RightToe
				{
					OFFSET -0.025372 -0.048144 0.123348
					CHANNELS 3 Zrotation Yrotation Xrotation
					End Site
					{
						OFFSET 0.000000 0.000000 0.000000
					}
				}
			}
		}
	}
	JOINT Spine
	{
		OFFSET -0.002533 0.108963 -0.026696
		CHANNELS 3 Zrotation Yrotation Xrotation
		JOINT Spine1
		{
			OFFSET 0.005487 0.135180 0.001092
			CHANNELS 3 Zrotation Yrotation Xrotation
			JOINT Spine2
			{
				OFFSET 0.001457 0.052922 0.025425
				CHANNELS 3 Zrotation Yrotation Xrotation
				JOINT Neck
				{
					OFFSET -0.002778 0.213870 -0.042857
					CHANNELS 3 Zrotation Yrotation Xrotation
					JOINT Head
					{
						OFFSET 0.005152 0.064970 0.051349
						CHANNELS 3 Zrotation Yrotation Xrotation
						End Site
						{
							OFFSET 0.000000 0.000000 0.000000
						}
					}
				}
				JOINT LeftShoulder
				{
					OFFSET 0.078845 0.121749 -0.034090
					CHANNELS 3 Zrotation Yrotation Xrotation
					JOINT LeftArm
					{
						OFFSET 0.090977 0.030469 -0.008868
						CHANNELS 3 Zrotation Yrotation Xrotation
						JOINT LeftForeArm
						{
							OFFSET 0.259612 -0.012772 -0.027456
							CHANNELS 3 Zrotation Yrotation Xrotation
							JOINT LeftHand
							{
								OFFSET 0.249234 0.008986 -0.001171
								CHANNELS 3 Zrotation Yrotation Xrotation
								End Site
								{
									OFFSET 0.000000 0.000000 0.000000
								}
							}
						}
					}
				}
				JOINT RightShoulder
				{
					OFFSET -0.081759 0.118833 -0.038615
					CHANNELS 3 Zrotation Yrotation Xrotation
					JOINT RightArm
					{
						OFFSET -0.096012 0.032551 -0.009143
						CHANNELS 3 Zrotation Yrotation Xrotation
						JOINT RightForeArm
						{
							OFFSET -0.253742 -0.013329 -0.021401
							CHANNELS 3 Zrotation Yrotation Xrotation
							JOINT RightHand
							{
								OFFSET -0.255298 0.007772 -0.005559
								CHANNELS 3 Zrotation Yrotation Xrotation
								End Site
								{
									OFFSET 0.000000 0.000000 0.000000
								}
							}
						}
					}
				}
			}
		}
	}
}
MOTION
Frames: 16
Frame Time: 0.050000
0.004580 0.963335 -0.035802 -2.843283 -12.583464 2.136416 2.308029 0.685773 7.552761 1.132623 0.388156 -10.409374 5.495843 12.790374 18.869834 0.000000 0.000000 0.000000 0.688637 -0.143895 1.137093 0.654699 -0.214880 -5.830066 2.803905 -3.919490 17.065037 0.000000 0.000000 0.000000 7.180706 -0.347251 2.763304 -6.066005 1.871425 -25.131049 -2.724338 5.924242 29.220848 16.135068 -7.047121 -31.002744 0.000000 0.000000 0.000000 -6.370557 -7.206937 2.977723 -48.185708 2.570116 -8.867642 -35.970555 -50.602183 21.256679 0.000000 0.000000 0.000000 4.097956 -2.131339 -1.105895 12.643223 46.726333 -0.185064 -79.790084 58.090125 -46.655302 0.000000 0.000000 0.000000 
0.004524 0.963730 -0.038248 -2.641504 -10.933522 2.069604 2.596697 0.605168 7.130764 0.698830 0.392634 -10.324862 4.622433 11.696754 18.580459 0.000000 0.000000 0.000000 0.553241 -0.153394 1.317576 0.627386 -0.228016 -6.078303 2.292201 -4.574680 17.256316 0.000000 0.000000 0.000000 7.733858 -0.363728 2.740960 -6.973399 2.115222 -25.036330 -2.512538 6.324484 29.274438 16.567636 -6.885394 -31.844292 0.000000 0.000000 0.000000 -6.192369 -8.003779 3.156786 -47.600886 2.614269 -8.826996 -35.696963 -51.204990 21.033372 0.000000 0.000000 0.000000 2.499343 -1.688609 -0.750928 11.699224 48.768050 -0.284195 -73.009708 54.954126 -38.579608 0.000000 0.000000 0.000000 
0.004132 0.963904 -0.040490 -2.211792 -9.556413 1.791660 2.739553 0.548112 6.778290 0.039821 0.389648 -9.920951 3.880038 10.761554 18.293605 0.000000 0.000000 0.000000 0.379457 -0.161154 1.505897 0.645692 -0.234689 -6.054091 1.192551 -6.146662 17.171771 0.000000 0.000000 0.000000 7.712673 -0.354346 2.656728 -7.758147 2.346632 -24.337035 -2.310952 6.780948 28.927798 16.240511 -6.613092 -31.299822 0.000000 0.000000 0.000000 -5.996265 -7.758448 2.912083 -46.791145 2.003881 -8.458729 -37.148261 -54.000757 22.827329 0.000000 0.000000 0.000000 0.783126 -0.038731 -0.043082 10.774593 49.418429 -0.359230 -64.611723 51.653685 -30.452889 0.000000 0.000000 0.000000 
0.003401 0.964415 -0.042468 -1.838286 -8.262923 1.392736 3.108896 0.521757 6.893982 -0.911178 0.422544 -10.001260 3.082146 9.776993 18.290915 0.000000 0.000000 0.000000 0.134001 -0.195104 2.017610 0.655641 -0.251458 -6.475732 0.559914 -7.178454 17.750732 0.000000 0.000000 0.000000 7.575639 -0.334478 2.536368 -8.490478 2.561854 -24.014418 -1.661579 7.699291 29.263441 16.796034 -6.646945 -31.515497 0.000000 0.000000 0.000000 -5.278068 -8.017929 2.848901 -46.388674 0.847190 -8.043904 -40.838843 -57.664254 26.446000 0.000000 0.000000 0.000000 0.142530 0.679706 0.224782 10.818587 49.554256 -0.099313 -54.190040 51.678024 -24.140207 0.000000 0.000000 0.000000 
0.002515 0.964339 -0.044335 -1.744068 -7.290701 1.374918 3.318168 0.457893 6.422941 -1.132521 0.409649 -9.608830 2.622958 9.196148 18.042501 0.000000 0.000000 0.000000 0.280279 -0.223957 2.216155 0.701018 -0.262433 -6.652790 -0.218766 -8.182323 17.385161 0.000000 0.000000 0.000000 7.569501 -0.311170 2.278468 -9.310444 2.818256 -23.272410 -1.141274 8.208966 28.908704 16.831649 -6.489841 -31.430404 0.000000 0.000000 0.000000 -4.991628 -6.519906 2.157922 -44.973284 0.106858 -7.524783 -50.077973 -64.540323 36.261703 0.000000 0.000000 0.000000 -0.279062 2.578768 0.880610 11.490410 48.054553 0.266396 -44.155441 53.517720 -19.487363 0.000000 0.000000 0.000000 
0.001666 0.964342 -0.046172 -1.787048 -6.076143 1.168195 3.996956 0.393019 6.285740 -1.875398 0.424633 -9.461055 1.979613 8.385475 17.820880 0.000000 0.000000 0.000000 0.425429 -0.268960 2.576412 0.743941 -0.271498 -6.694667 -0.658982 -8.656361 17.193435 0.000000 0.000000 0.000000 7.253176 -0.312740 2.365419 -9.778037 2.971789 -22.978646 -0.277626 8.830852 28.613658 17.692328 -6.746471 -31.500267 0.000000 0.000000 0.000000 -4.297648 -5.850457 1.807711 -43.982602 -1.671507 -6.761800 -63.653946 -70.369965 50.493356 0.000000 0.000000 0.000000 0.217006 3.223839 1.128784 12.570972 46.026019 0.651805 -33.321428 57.902615 -14.996774 0.000000 0.000000 0.000000 
0.001191 0.963783 -0.047481 -1.991556 -5.119392 1.152762 4.381244 0.331006 5.908860 -1.909158 0.409273 -9.127601 1.585338 7.854441 17.394297 0.000000 0.000000 0.000000 0.651078 -0.291516 2.650900 0.706146 -0.271506 -6.563914 -0.757609 -8.579898 16.885363 0.000000 0.000000 0.000000 7.129701 -0.337346 2.597196 -9.909933 3.043387 -22.525880 0.331342 9.403752 28.230560 18.418692 -6.821604 -32.013363 0.000000 0.000000 0.000000 -3.856895 -4.848168 1.362313 -43.323803 -3.158587 -6.140760 -83.480504 -74.853516 71.619960 0.000000 0.000000 0.000000 0.443217 3.766127 1.343684 14.048703 43.706969 1.041478 -23.900936 62.708364 -10.531501 0.000000 0.000000 0.000000 
0.001249 0.963190 -0.048164 -2.206365 -4.878030 1.145270 4.668641 0.314749 5.974236 -1.958464 0.413696 -9.328600 1.496179 7.718037 17.200423 0.000000 0.000000 0.000000 0.841786 -0.318517 2.802483 0.944061 -0.280419 -6.506621 -0.985169 -8.728627 16.187604 0.000000 0.000000 0.000000 6.937341 -0.367998 2.946044 -10.169889 3.088441 -22.926355 1.368852 9.575304 28.404367 18.867323 -6.922463 -32.468064 0.000000 0.000000 0.000000 -3.499898 -4.222974 1.134625 -43.520203 -3.964493 -5.932833 -103.318503 -77.322902 93.798676 0.000000 0.000000 0.000000 0.839410 3.888695 1.419822 15.719340 41.284214 1.260059 -18.150282 68.225295 -7.721933 0.000000 0.000000 0.000000 
0.001875 0.962528 -0.048226 -2.267424 -5.294203 1.231722 4.511807 0.336005 6.080776 -1.720156 0.414330 -9.563801 1.742804 8.009783 17.108614 0.000000 0.000000 0.000000 0.625122 -0.278232 2.530407 0.826007 -0.273305 -6.485264 -0.157124 -7.505827 16.588509 0.000000 0.000000 0.000000 6.866877 -0.416780 3.452062 -9.962698 3.018066 -23.106793 1.696064 9.870439 28.485335 19.382615 -7.216262 -32.395117 0.000000 0.000000 0.000000 -3.700448 -3.372120 0.794891 -43.429662 -4.661863 -5.684032 -111.392934 -77.566505 102.565756 0.000000 0.000000 0.000000 1.080098 3.135567 1.162187 17.699108 39.269978 1.508713 -20.648740 75.723346 -10.574017 0.000000 0.000000 0.000000 
0.002674 0.962164 -0.048099 -2.336110 -6.402148 1.283341 4.385203 0.362083 6.090931 -1.670818 0.415303 -9.348991 2.343025 8.748591 17.069135 0.000000 0.000000 0.000000 0.323286 -0.263168 2.578102 1.170562 -0.279524 -6.472672 0.545068 -6.238151 15.862286 0.000000 0.000000 0.000000 6.633043 -0.459226 4.011746 -9.979927 2.971992 -23.798270 2.190349 9.430450 28.697376 18.766803 -6.918930 -32.875352 0.000000 0.000000 0.000000 -4.119405 -2.446688 0.477298 -42.469971 -3.821621 -5.814130 -114.726997 -76.807657 105.978295 0.000000 0.000000 0.000000 1.619458 2.163576 0.817595 19.097256 37.773758 1.532436 -39.990249 80.325933 -28.170770 0.000000 0.000000 0.000000 
0.003472 0.962317 -0.048167 -2.462957 -8.180653 1.527209 4.124272 0.425547 6.408118 -1.418994 0.435995 -9.873503 3.198817 9.863869 17.546997 0.000000 0.000000 0.000000 0.251949 -0.230760 2.315802 1.069197 -0.266116 -6.493421 1.638914 -4.483724 15.490862 0.000000 0.000000 0.000000 6.425501 -0.468937 4.221314 -9.117393 2.712483 -24.127643 1.708100 9.093426 28.827661 19.231035 -7.393620 -32.852275 0.000000 0.000000 0.000000 -3.968013 -2.387810 0.561495 -41.882469 -3.271262 -5.917597 -106.778290 -77.929241 99.399323 0.000000 0.000000 0.000000 2.885292 0.671122 0.261401 19.975272 37.890460 1.593334 -71.819084 80.049689 -56.579905 0.000000 0.000000 0.000000 
0.003938 0.962664 -0.048634 -2.573098 -10.214540 1.486346 3.834303 0.496693 6.694502 -1.158279 0.436342 -9.775163 4.214835 11.164858 17.988022 0.000000 0.000000 0.000000 0.111890 -0.205867 2.191050 0.975351 -0.247935 -6.332783 2.958099 -2.382367 15.254622 0.000000 0.000000 0.000000 6.005927 -0.504205 4.913766 -8.279644 2.455952 -24.726149 1.127896 7.563942 29.057980 18.702259 -7.635931 -32.367507 0.000000 0.000000 0.000000 -3.874969 -2.603316 0.819177 -40.385696 -3.701132 -5.609025 -92.613151 -80.775896 89.169940 0.000000 0.000000 0.000000 3.684319 -0.093053 -0.139121 20.273024 37.588248 1.442617 -94.020992 77.114938 -75.879223 0.000000 0.000000 0.000000 
0.004045 0.963545 -0.049468 -2.972731 -12.556004 1.493255 3.824258 0.593648 7.371037 -0.877357 0.461238 -10.284935 5.324652 12.575259 18.833142 0.000000 0.000000 0.000000 0.606065 -0.205039 1.880606 0.866521 -0.226307 -6.058662 3.708723 -1.494751 15.350253 0.000000 0.000000 0.000000 5.902614 -0.530132 5.388385 -7.407518 2.206373 -24.710537 0.317977 6.205590 28.960703 18.500962 -8.027458 -31.906860 0.000000 0.000000 0.000000 -2.833022 -3.842760 1.443028 -38.712123 -4.944792 -5.042075 -41.829214 -84.036270 44.692253 0.000000 0.000000 0.000000 5.036618 -1.184260 -0.785744 20.499337 37.328366 1.312688 -101.541980 74.280253 -81.714343 0.000000 0.000000 0.000000 
0.003853 0.964037 -0.050336 -3.186199 -14.483793 1.405715 3.642223 0.699036 8.033931 -0.538100 0.482769 -10.750667 6.234449 13.709111 19.573617 0.000000 0.000000 0.000000 1.085965 -0.236627 1.923695 0.336165 -0.208843 -6.354227 4.563646 -0.553848 15.797052 0.000000 0.000000 0.000000 5.119754 -0.517054 5.844539 -5.917441 1.810774 -25.400963 -0.698648 4.185676 29.690200 17.587913 -8.303135 -30.802312 0.000000 0.000000 0.000000 -1.517255 -4.707423 1.820553 -35.867890 -6.027004 -4.488400 11.480966 -80.266593 -2.284726 0.000000 0.000000 0.000000 5.405573 -1.713543 -1.247410 20.408620 36.135633 0.999467 -103.214657 71.619577 -82.339041 0.000000 0.000000 0.000000 
0.003653 0.964441 -0.051075 -3.662477 -16.584754 1.354043 3.678587 0.817632 8.834662 -0.153747 0.511955 -11.302500 7.250747 14.948330 20.352811 0.000000 0.000000 0.000000 1.682738 -0.262061 1.804933 0.154286 -0.191628 -6.237128 5.387800 0.327548 16.141782 0.000000 0.000000 0.000000 4.880275 -0.524854 6.264835 -5.060723 1.569650 -25.465959 -1.288671 2.129649 29.588383 16.950572 -8.553640 -30.199595 0.000000 0.000000 0.000000 -0.331793 -5.574637 2.086470 -32.203088 -6.436197 -3.994960 27.126448 -71.660125 -12.406784 0.000000 0.000000 0.000000 6.027579 -2.426821 -1.895067 20.162340 34.952478 0.769330 -101.563805 71.197417 -82.110296 0.000000 0.000000 0.000000 
0.003820 0.964956 -0.051358 -3.733913 -18.599600 1.326745 3.118886 0.922673 9.158832 0.464511 0.495152 -11.269977 8.294791 16.192750 21.151801 0.000000 0.000000 0.000000 1.685991 -0.257373 1.769819 0.613287 -0.187550 -6.365434 5.601009 0.275283 16.272106 0.000000 0.000000 0.000000 4.440469 -0.539241 7.061021 -3.962127 1.319623 -26.621668 -2.227008 0.642623 30.024094 15.587655 -8.391316 -29.434803 0.000000 0.000000 0.000000 1.686710 -6.005528 1.952762 -29.512954 -5.981019 -3.777399 29.051725 -63.417730 -11.178616 0.000000 0.000000 0.000000 5.980904 -3.740989 -2.656380 20.661569 33.594146 0.669978 -96.732666 71.481399 -79.147880 0.000000 0.000000 0.000000 
